<?xml version="1.0" encoding="UTF-8"?>
<svg id="Layer_1" data-name="Layer 1" xmlns="http://www.w3.org/2000/svg" viewBox="0 0 516.74 115.41">
  <defs>
    <style>
      .cls-1 {
        fill: #854042;
      }

      .cls-2 {
        fill: #47b088;
      }

      .cls-3 {
        fill: #fefdfd;
      }

      .cls-4 {
        stroke-width: .25px;
      }

      .cls-4, .cls-5, .cls-6 {
        stroke-miterlimit: 10;
      }

      .cls-4, .cls-6 {
        stroke: #000;
      }

      .cls-7 {
        fill: #010101;
      }

      .cls-8 {
        fill: #fbfbfa;
      }

      .cls-9, .cls-5 {
        fill: #231f20;
      }

      .cls-10 {
        fill: #47b187;
      }

      .cls-11 {
        fill: #48b088;
      }

      .cls-12 {
        fill: #c55e61;
      }

      .cls-5 {
        stroke: #231f20;
      }

      .cls-5, .cls-6 {
        stroke-width: .1px;
      }

      .cls-13 {
        fill: #6f80b4;
      }

      .cls-14 {
        fill: #c45e61;
      }

      .cls-15 {
        fill: #7182b4;
      }

      .cls-16 {
        fill: #b8585b;
      }

      .cls-17 {
        fill: #f6931e;
      }

      .cls-18 {
        fill: #c25d60;
      }

      .cls-19 {
        fill: #c35e60;
      }

      .cls-20 {
        fill: #6b81b8;
      }

      .cls-21 {
        fill: #a24e50;
      }

      .cls-22 {
        fill: #48ad85;
      }

      .cls-23 {
        fill: #bc5c5f;
      }

      .cls-24 {
        fill: #f7911e;
      }

      .cls-25 {
        fill: #fcfcfc;
      }

      .cls-26 {
        fill: #969293;
      }
    </style>
  </defs>
  <g>
    <path class="cls-9" d="M2.55,67.37v-31.59h22.27v4.72h-15.62v8.49h14.35v4.4h-14.35v13.99H2.55Z"/>
    <path class="cls-9" d="M26.32,61.82v-.09c0-4.96,4.24-7,10.65-8.19l6.41-1.17v-1.33c0-2.73-1.54-3.93-4.78-3.93-3.63,0-5.48,1.65-5.21,5.28l-6.48-.54c-.34-5.51,3.75-8.69,11.83-8.69,7.61,0,11.17,2.57,11.17,7.94v10.86c0,1.67.32,1.9,2.73,1.94l-.77,3.9c-.54.09-1.22.16-1.87.16-5.17,0-6.07-1.9-5.21-6.27l-.45-.11c-1.44,4.02-5.3,6.39-10.58,6.39-4.76,0-7.42-2.23-7.42-6.14ZM43.38,57.33v-1.11l-4.17.81c-4.15.81-6.25,1.71-6.25,4.06v.09c0,1.62,1.2,2.41,3.41,2.41,3.75,0,7.02-2.62,7.02-6.27Z"/>
    <path class="cls-9" d="M55.17,40.87v-4.74h7.04v4.74h-7.04ZM55.39,67.37v-23.7h6.57v23.7h-6.57Z"/>
    <path class="cls-9" d="M68.87,60.82v-12.86h-3.9v-4.29h3.9v-5.26l6.57-1.69v6.95h7.85v4.29h-7.85v11.78c0,2.48,1.13,3.48,3.52,3.48,1.33,0,2.84-.27,4.31-.88l-.36,4.31c-1.65.77-3.95,1.24-6.46,1.24-5.08,0-7.58-2.28-7.58-7.06Z"/>
    <path class="cls-9" d="M86.36,67.37v-31.59h6.57v7.31c0,2.23-.34,4.11-1.22,6.63l.47.18c1.96-4.49,5.3-6.66,10.27-6.66,5.39,0,8.33,2.62,8.33,7.58v16.54h-6.57v-14.96c0-3.07-1.53-4.65-4.63-4.65-4.17,0-6.66,3.27-6.66,8.6v11.01h-6.57Z"/>
    <path class="cls-9" d="M1.26,101.01v-.09c0-4.96,4.24-7,10.65-8.19l6.41-1.17v-1.33c0-2.73-1.54-3.93-4.78-3.93-3.63,0-5.48,1.65-5.21,5.28l-6.48-.54c-.34-5.51,3.75-8.69,11.83-8.69,7.61,0,11.17,2.57,11.17,7.94v10.86c0,1.67.32,1.9,2.73,1.94l-.77,3.9c-.54.09-1.22.16-1.87.16-5.17,0-6.07-1.9-5.21-6.27l-.45-.11c-1.44,4.02-5.3,6.39-10.58,6.39-4.76,0-7.42-2.23-7.42-6.14ZM18.33,96.52v-1.11l-4.17.81c-4.15.81-6.25,1.71-6.25,4.06v.09c0,1.62,1.2,2.42,3.41,2.42,3.75,0,7.02-2.62,7.02-6.27Z"/>
    <path class="cls-9" d="M30.34,106.56v-23.7h6.59c0,1.76-.32,3.36-1.22,6.05l.45.2c2.03-4.51,5.35-6.68,10.27-6.68,5.42,0,8.33,2.62,8.33,7.58v16.54h-6.57v-14.96c0-3.07-1.53-4.69-4.63-4.69-4.15,0-6.66,3.32-6.66,8.64v11.01h-6.57Z"/>
    <path class="cls-9" d="M58.46,94.99v-.56c0-7.9,3.57-11.98,10.34-11.98,4.9,0,8.1,2.3,9.7,6.36l.45-.18c-.81-2.73-1.15-4.74-1.15-7.22v-6.43h6.57v31.59h-6.63c.02-1.31.43-3.27,1.2-5.75l-.47-.16c-1.6,4.08-4.78,6.34-9.66,6.34-6.77,0-10.34-4.13-10.34-12.01ZM77.8,95.1v-.81c0-5.12-2.28-7.88-6.52-7.88s-6.18,2.62-6.18,7.76v1.04c0,5.12,2.12,7.72,6.18,7.72s6.52-2.73,6.52-7.83Z"/>
    <path class="cls-9" d="M99.03,106.56v-31.59h6.66v12.43h14.44v-12.43h6.68v31.59h-6.68v-14.29h-14.44v14.29h-6.66Z"/>
    <path class="cls-9" d="M130.9,95.03v-.63c0-7.94,4.83-12.1,13.07-12.1s13.04,4.15,13.04,12.1v.63c0,7.94-4.85,12.1-13.04,12.1s-13.07-4.15-13.07-12.1ZM150.29,95.37v-1.31c0-5.21-2.35-7.61-6.32-7.61s-6.34,2.39-6.34,7.61v1.31c0,5.21,2.35,7.61,6.34,7.61s6.32-2.39,6.32-7.61Z"/>
    <path class="cls-9" d="M160.83,106.56v-23.7h6.59c.04,1.54-.25,3.05-1.22,6l.45.18c2.21-4.65,5.08-6.61,9.43-6.61,4.69,0,7.02,2.37,6.5,6.68l.45.11c2.01-4.67,5.1-6.79,9.7-6.79,4.94,0,7.49,2.39,7.49,7.15v16.97h-6.57v-15.48c0-2.62-1.4-4.02-4.08-4.02-3.68,0-5.75,3.25-5.75,8.19v11.31h-6.57v-15.44c0-2.64-1.42-4.06-4.02-4.06-3.66,0-5.84,3.25-5.84,8.51v10.99h-6.57Z"/>
    <path class="cls-9" d="M229.85,99.05c-1.04,5.35-5.42,8.06-12.8,8.06-8.4,0-13.11-4.04-13.11-11.74v-1.31c0-7.52,4.72-11.74,13.2-11.74s12.62,4.04,12.62,11.17c0,.97-.07,1.85-.18,2.96h-18.98c.16,4.47,2.59,6.57,6.59,6.57,3.41,0,5.53-1.35,6.14-4.65l6.52.68ZM210.65,92.39h12.48v-.36c0-3.63-2.1-5.62-5.96-5.62s-6.16,2.05-6.52,5.98Z"/>
  </g>
  <g>
    <g>
      <g>
        <path class="cls-26" d="M396.36,62.98c-.03.12-.05.24-.07.34-.03.12-.09.25-.14.34l-36.72,1.6-.46-.56c.34-.91.75-3.82,1.93-4.15,7.29-2.03,11.12-5.89,14.94-12.17.75-1.24,1.15-2.35,1.33-2.91.13-.54.64-.61,1.19-.52-.25-.11-.41-.22-.28-.36.33-.02.71-.01,1.12.02.78.08,1.44.26,1.95.45-.13,1.62-.33,3.34-.62,5.15-.45,2.78-1.04,5.31-1.69,7.57l.51-.07c1.03-1.01,2.3-1.66,3.64-2.47,5.39-3.29,8.37-7.47,9.11-8.35,4.16-4.96,7.17-14.94,7.11-27.05.75-.04,1.51-.08,2.26-.12.27,7.82.16,16.32-.55,25.39-.3,3.88-.7,7.63-1.17,11.23-1.63-.24-1.83-.09-1.86-.02,0,0-.02.05-.03.07-.03.08-.08.23-.13.42-.44,1.56-.93,3.09-1.41,4.63.1.56.13,1.06.05,1.51Z"/>
        <path class="cls-26" d="M426.02,39.69c-.37,2.35-.67,7.35-.93,14.36h0c0,.35-.02.72-.04,1.08h0c0,.43-.03.84-.04,1.27-.08,2.08-.15,4.31-.23,6.69,0,.35-.02.71-.03,1.07h0c0,.17,0,.32-.02.49,0,.12,0,.24,0,.35-.05,0-.09,0-.14-.02-.34-.04-.7-.08-1.05-.12-.48-.06-.98-.12-1.47-.17-.96-.11-1.94-.21-2.93-.3-1.09-.11-2.21-.21-3.33-.29-.73-.06-1.45-.11-2.2-.16-.47-.04-.94-.07-1.41-.1-.3-.02-.6-.04-.9-.05-1.17-.08-2.36-.14-3.56-.19-.41-.02-.82-.03-1.23-.04-.23-.02-.44-.02-.66-.02h0c-.12-.24-.25-.45-.38-.68l-.02-.04-.59-1.02h-.03v.03l.05,1v.09c.02.18.05.37.08.59-.28-.02-.57-.02-.85-.02h0c-.91-.03-1.81-.05-2.71-.06-.54,0-1.08,0-1.61-.02-1.1,0-2.19,0-3.25,0-.09-.04-.18-.07-.25-.11-.11-.06-.19-.12-.2-.19v-.05c-.03-.33.06-.9.23-1.61.3-1.31.86-3.07,1.39-4.58,0,0,0-.03.02-.06.39-1.14.76-2.13.99-2.66l.15-.13.71-.64h0l.2-.18s.07,0,.11,0c.46.03.92.04,1.38.04,1.7.02,3.36-.14,4.97-.45h0c.43-.08.86-.18,1.28-.28.68-.18,1.35-.38,2.01-.62.44-.16,1-.35,1.64-.61.25-.1.53-.22.8-.33,2.68-1.17,6.31-3.28,8.87-7.4,2.23-3.6,2.7-7.22,2.75-9.52,0-.15,0-.29,0-.43.43.16,1.04.45,1.55,1.02,1.45,1.63.99,4.21.86,5.02Z"/>
        <path class="cls-9" d="M404.96,63.52c.06.3.14.63.26.91-.19,0-.38,0-.59.02-1.25.04-2.78.09-4.67.18-.31,0-.64.02-.97.04-.05,0-.1,0-.15,0-19.63.89-26.62.92-39.46,1.18-.66,0-1.31.04-1.99,0-.14,0-.27-.03-.42-.04-.29-.03-.6-.08-.9-.16-.36-.08-.74-.2-1.12-.36.82-.39,1.64-.5,2.44-.54.3,0,.61-.02.91-.02h.19c.16,0,.31,0,.47-.02,12.37-.54,24.74-1.09,37.12-1.63.09,0,.17,0,.25,0,1.24-.06,2.5-.11,3.74-.17-.03-.03-.07-.08-.14-.13-.13-.11-.22-.11-.29-.18,0,0-.11-.09-.15-.3-.03-.16.12-3.42.33-8.08,0-.25.02-.52.04-.78v-.19c.18-3.93.38-8.7.55-13.39.3-8.42.49-16.55.17-18.96-.07-.43-.14-.68-.24-.72,0,0-.03,0-.07-.02-.09-.02-.21-.02-.66,0-.12,0-.25.02-.43.03-.11,0-.24,0-.38.02-4.42.26-8.83.79-13.24,1.26-1.12.12-2.63.27-3.45,1.39-.56.76-.56,1.67-.56,2.05,0,0,.16,10.63-.44,20.14-.02.27-.04.54-.06.8-.32,4.86-.86,9.35-1.73,11.86-.32.93-.71,1.97-.71,1.97h0c-.33.85-.67,1.58-.96,2.17,1.33-4.51,1.78-8.24,1.94-10.84.09-1.43.17-3.69.24-6.3.2-7.44.34-17.79.67-20.35.12-.94.42-2.09,1.32-2.84.34-.28.67-.43.84-.5,3.82-1.59,13.77-1.81,16.74-2.13.34-.04,1.3-.15,2.03.41,0,0,.62.48.83,1.48.05.22.08.72.09,1.44.02.72,0,1.66,0,2.78h0c-.1,6.6-.67,19.3-1.1,28.26,0,.14,0,.26-.02.4-.02.35-.04.7-.05,1.04-.19,3.74-.33,6.67-.4,7.92,0,.09,0,.18,0,.25,1.36-.02,2.73-.04,4.1-.06v.09c.02.18.05.37.08.59Z"/>
        <path class="cls-9" d="M426.39,65.55c-.17-.02-.33-.04-.51-.06h0s0,0,0,0c-.25-.03-.5-.06-.77-.09-.43-.05-.89-.1-1.37-.16-.32-.03-.67-.07-1.02-.1h0s0,0,0,0c-.9-.09-1.87-.18-2.9-.25,0,0,0,0,0,0-.41-.04-.83-.07-1.26-.1-.37-.03-.76-.06-1.16-.08-.78-.05-1.6-.1-2.44-.14-.15,0-.29,0-.44-.02-.56-.02-1.13-.05-1.71-.06-.19,0-.38-.02-.58-.03-.31,0-.63,0-.94-.02-.62,0-1.24-.02-1.88-.03-.6,0-1.41,0-2.58,0-.2,0-.4,0-.62,0,0-.06-.03-.1-.04-.14-.07-.25-.16-.49-.26-.73h0c-.12-.24-.25-.45-.38-.68l-.02-.04c.22,0,.44,0,.66,0,.14,0,.27,0,.41,0,1.66-.02,3.28,0,4.9.07.26,0,.53.02.79.03.74.04,1.49.08,2.23.14.33.02.67.04,1,.07,1.57.12,3.13.26,4.69.43-.02,0-.02.02-.02.02.03,0,.1.03.2.05.17.03.42.09.74.16.62.13,1.46.3,2.29.51.26.06.53.13.78.2.21.06.41.11.61.17.11.03.21.06.3.1h0c.87.27,1.47.56,1.34.8Z"/>
        <path class="cls-9" d="M425.28,62.84c-.08.07-.26.22-.52.25-.36.05-.74-.15-.97-.49.08-1.15,1.79-24.49,1.79-25.77,0-.43-.12-.81-.12-.81-.15-.46-.44-.81-.74-1.17-1.44-1.72-5.11-1.13-7.54-.71l-8.75,1.52c-.3.07-.63.12-.98.16-1.27.13-2.38-.02-3.22-.23,9.24-2.3,16.25-3.4,18.69-3.07.53.07,1.67.23,2.57,1.09,1.11,1.07,1.3,2.67,1.31,2.78.03.28.03.52.02.69-.52,8.58-1.03,17.16-1.55,25.75Z"/>
        <path class="cls-9" d="M421.11,15.32c-.45-.77-3.11.57-3.79.15,0-.58,0-1.37-.06-2.3-.09-1.35-.2-1.56-.35-1.7-.6-.52-2.21-.21-2.99.75-1.18,1.46.24,3.39-.9,4.48-.91.87-2.3.06-3.02,1.09-.34.5-.35,1.19-.35,2.11,0,.71,0,1.07.19,1.28.66.75,2.48-.77,3.33-.09.37.3-.62,9.06.49,9.81.08.06,3.04.41,3.08-2.07.07-2.87.05-5.66.34-8.47.11-.75,3.09-.13,3.84-1.62.49-.97.75-2.44.2-3.43ZM419.33,18.54c-1.12.28-2.02.18-3.09.56-.1,1.35-.21,2.71-.3,4.06l-.28,5.35c0,.13,0,.29-.03.51-.04.19-.06.28-.14.37-.16.18-.42.18-.58.18-.11,0-.28-.02-.49-.11v-10.06c-1.44.22-2.33.48-2.91.72-.17.06-.55.23-.75.06-.19-.15-.14-.49-.09-.95.06-.41.09-.66.27-.85.25-.26.61-.27.78-.29.8-.06,2.12-.5,2.57-1.19.39-.59.11-.94.1-2.97,0-.47.09-.91.45-1.3s.99-.71,1.33-.51c.27.15.3.6.3,1.27,0,.78-.05,1.85-.23,3.15.4,0,1.05,0,1.85-.06,1.33-.09,1.71-.2,1.92.06.36.42.11,1.81-.7,2.01Z"/>
        <path class="cls-9" d="M360.65,45.77c-.18.19-.25.41-.28.55-.18,4.43-.36,8.85-.54,13.28-.19.31-.41.61-.68.83-.24-3.07-.54-12.33.19-15.38.29-.58,1.88-.84,2.53-.87,5.51-.41,10.9-.41,16.21.43.4.26.96.14,1.32.61-.5.1-1.28.23-2.23.27-1.13.05-1.98-.04-2.38-.09,0,0-7.08-.79-13.43.05-.21.03-.5.1-.71.32Z"/>
      </g>
      <g>
        <path class="cls-11" d="M359.29,60.29v-.08c-.39-4.97,0-7.05-.4-9.89v-.06h0c-.14-.89-.35-1.87-.71-3.04-1.05-3.56-2.04-5.59-3.92-8.01-1.78-2.28-4.17-3.85-7.49-3.59h-.07c-.95-.12-2.6-.25-4.63.02,0,0-.02,0-.03,0-1.47.2-3.15.6-4.9,1.37-4.71,2.07-7.17,5.56-8.04,6.94-.3-5.5-3.59-9.86-7.84-10.92-3.87-.95-7.17,1.21-7.96,1.76-.49.34-.93.72-1.32,1.11-.3.29-.59.61-.83.93.03.03.04.06.06.09.07.12.13.24.19.35.76,1.54.88,3.31-.25,4.77-.59.75-1.35,1.24-2.13,1.36-.14.03-.27.04-.41.04h0c-.05.49-.07.93-.08,1.28,0,.21,0,.39,0,.54,0,.22,0,.36.02.41-.13.55-.25,1.1-.37,1.64,0,.04-.02.08-.03.11-.04.22-.09.42-.14.63-.12-.17-.33-.47-.66-.79-.56-.58-1.44-1.25-2.65-1.54-.5-.12-1.75-.41-2.92.25-.58.32-1.07.83-1.4,1.5-1.34,2.55-1.58,5.74-1.04,8.77.09.49.2.97.32,1.45.42,1.62,1.06,3.15,1.84,4.46.62,1.02,1.1,1.58,1.65,1.92.48.3.96.49,1.39.61.44.12.84.17,1.14.2.06,0,.12,0,.17,0,.34.02.67.04.98.05h.04c2.71.14,4.35.13,5.27.1.76-.03,1.05-.08,1.05-.08,0,0,.03,0,.04,0,3-.47,6.37-.65,13.07-1,2.79-.15,6.83-.19,11.82.36,2.46.27,4.93.55,7.4.82.25.03.5.06.74.09.18.02.36.04.54.06.03.05.15.26.39.41.08.05.18.09.28.12.2.05.37.03.53-.02h0c.27-.09.46-.26.47-.28.81.06,1.62.12,2.43.19l2.29.18c1.05.08,2.11.16,3.17.24.23-.1.42-.21.6-.3.22-.12.4-.25.55-.34.21-.16.37-.27.56-.46.09-.09.17-.19.23-.27.25-.33.36-.65.42-.81.62-1.69.58-3.26.56-3.63ZM350.92,54.72c-1.03-.37-1.43-1.49-1.58-1.87-.79-2.2.39-5.03,2.14-5.87.24-.11.74-.32,1.38-.25.57.07,1.21.51,1.58,1.14.11.2.49.74.62,1.64.26,1.96-.73,4.55-2.57,5.18-.22.08-.87.28-1.57.04Z"/>
        <path d="M359.04,47.09v-.02c-1.02-3.7-2.91-7.09-6.01-9.73-.47-.44-1.14-.97-2.04-1.42-.48-.24-.93-.4-1.33-.52-5.37-1.62-10.87.17-10.87.17-5.56,1.82-8.59,5.82-9.57,7.25-.03-.69-.3-5.71-4.39-8.6-4.06-2.87-9.79-2.12-13.42,1.06-.14.12-.26.25-.4.37-.16.15-.3.3-.44.46.23.22.43.47.58.74.03.03.04.06.06.09.07.12.13.24.19.35.25-.35.55-.69.86-.99,2.86-2.87,7.4-3.83,11.09-1.7,5.46,3.11,4.14,8.95,5.76,9.36.59.14.66,0,1.04-.6,2.59-4.12,7.2-6.96,11.9-7.71,0,0,.02,0,.03,0,1.58-.26,3.18-.28,4.7-.02,2.66.43,5.11,1.68,6.96,3.91,5.43,6.47,5.64,15.97,4.15,23.92-.06.43-.25.92-.48,1.29-.15.25-.31.43-.49.54-.23.15-.51.27-.83.36-.52.15-1.13.22-1.69.13-.45-.06-.91-.13-1.36-.19-.86-.13-1.73-.25-2.59-.36-1.32-.18-2.64-.35-3.96-.52-.25-.04-.5-.07-.74-.1-7.39-.92-14.7-1.5-22.14-.91l-10.34.83-1.18.1-3.59.28c-.52.05-1.06.07-1.62.03h-.04c-.38-.02-.77-.07-1.16-.16-.39-.08-.77-.2-1.14-.35-.54-.24-1.02-.57-1.41-1.01-.37-.42-1.74-1.45-2.67-4.59-.14-.45-.25-.92-.37-1.41-.09-.44-.18-.91-.25-1.38-.66-4.18-.26-8.99,2.23-10.09,1.04-.45,2.35-.13,3.38.28.92.38,1.44.82,1.79,1.26.35.45.54.9.81,1.26.09.13.2.25.31.34.25.21,1.14-.1,1.04-.55-.21-.84-.35-1.62-.42-2.34-.12-.98-.1-1.88.03-2.8-.14.03-.27.04-.41.04h0c-.21,0-.4-.02-.61-.08-.11-.03-.22-.06-.32-.11-.02.43,0,.86.02,1.3.03.56.1,1.13.23,1.7.07.35.16.71.26,1.06,0,.07.04.15.06.22-.02-.03-.05-.06-.09-.11-.12-.13-.3-.34-.56-.6-.85-.83-2.46-2.05-4.48-1.88-.26.02-.98.08-1.72.48-2.93,1.58-2.97,6.6-2.97,8.1,0,.98.1,1.89.26,2.75.11.63.26,1.23.43,1.78.43,1.38,1,2.54,1.52,3.44.87,1.86,2.25,3.15,3.96,3.83.4.17.81.29,1.24.39.86.2,1.78.25,2.75.18l3.72-.31.89-.07,9.01-.75c7.79-.64,15.5-.17,23.17.71.25.03.5.06.75.09.35.04.71.09,1.06.13.27.03.54.07.81.1h0c1.13.15,2.24.29,3.37.44.78.11,1.57.22,2.35.32.13.02.25.03.37.04,1.29.11,2.42-.17,3.28-.75.43-.29.8-.67,1.1-1.12.31-.47.54-1.02.68-1.64.22-1.08.4-2.19.55-3.31h0c.06-.48.11-.96.16-1.45,0-.02,0-.05,0-.07v-.04c.1-1.19.16-2.39.15-3.6v-.08h0c-.02-2.55-.31-5.06-.99-7.46Z"/>
      </g>
      <g>
        <path class="cls-2" d="M241.11,68.87c-.08.09-.2.18-.38.28-.92,0-1.84.04-2.77.06l3.14-.34Z"/>
        <path class="cls-11" d="M255.33,37.22c-.22-.24-.35-.32-.55-.23-.06.03-.13.07-.18.14-.03.02-.06.05-.1.09-8.57-3.71-20.34,3.88-22.77,12.29.32-2.4,1.36-4.54,3.09-6.42.82-2.77-1.04-6.16-3.91-7.14-4.01-1.36-8.35.19-11.32,3.02l-.98.34c-4.91-8.67-15.23-12.07-24.58-9.04-6,1.97-12.36,6.74-12.55,13.55-.56,0-6.83.05-9.58,4.6-2.48,4.1-.35,8.97.1,9.99h0s0,.02,0,.02c.09,2.83.18,5.66.27,8.48,5.4.37,10.8.73,16.2,1.1.02,0,.03,0,.05,0,8.71-.25,17.71-.27,26.95.02,1.84.06,3.68.13,5.51.2.15,0,7.62-.41,13.44-.39h.03c.29,0,.57,0,.85.02-.28,0-.56,0-.85,0,.22.05.44.12.67.19,1.63-.1,3.27-.05,4.91.13-.16-.03-.32-.04-.5-.08.18.02.34.04.5.07h.08c.65.13,1.05.29,1.06.51h0c1.6-.09,3.16-.19,4.7-.33h0c1.56-1.14,1.91-6.96-.61-4.42-.44,1.9-1.16,2.62-2.19,2.14-.5-1.18-1.63-1.53-3.33-1.08-.29-1.13-.5-2.3-.63-3.46,0,0-.02-.05-.02-.08v-.04c-2.51-.4-5.1-1.06-2.22-3.67-.4-1.26-.92-2.51-1.58-3.73-.23-.63-.43-1.23-.36-1.9.04-.46,8.48-.05,9.36.02.54,2,1.12,4.03,1.78,6.07.23.66.5.84.71.89.83.2,1.86-1.47,3.22-3.71.8-1.31.92-1.71.76-2.03-.27-.53-1.25-.64-2.58-.7-.68-.29-.69-1.07-.1-2.28-2.58-4.4.38-9.35,5.38-6.52,1.96,1.64,2.47,1.78,2.56-1.16.03-1.08-.2-4.89-.71-5.49ZM239.54,68.11c-.09-.02-.18-.03-.28-.03-.18-.02-.39-.04-.6-.06-.32-.03-.66-.05-1.01-.07-.24-.02-.48-.03-.73-.04-.51-.02-1.06-.03-1.62-.04-.28,0-.56,0-.85,0,.22.05.44.12.67.19,1.63-.1,3.27-.05,4.91.13-.16-.03-.32-.04-.5-.08Z"/>
        <path class="cls-9" d="M281.02,28.51h0c-.07-1.1-.13-2.17-.19-3.24-.1-.65-.19-1.39-.57-1.76-.6-.59-1.39-.65-2.22-.55-3.15.34-8.15,1.38-10.21,1.75-4.1.74-8.27,1.62-11.1,1.75-.32.02-1.31.06-1.89.74-.66.77-.43,1.93-.32,2.69.26,1.47.52,3.57.59,6.41-1.65-.49-3.83-.91-6.41-.79-7.09.36-11.84,4.67-13.36,6.16.04-1.13-.1-2.77-1.14-4.21-2.27-3.16-7.26-2.99-10.18-2.1-2.49.77-4.15,2.29-5.03,3.24-.19-.18-.4-.42-.6-.71-.13-.23-.23-.43-.32-.61-.48-.76-1.24-1.84-2.36-2.98-4.8-4.89-12.62-7.2-19.9-5.63-1.42.31-10.13,2.36-13.86,9.96-.84,1.73-1.22,3.31-1.41,4.44-3.8-.08-7.05,1.83-9.15,4.84-2.55,3.62-2.19,7.29.62,10.5h0s0,.02,0,.02c.17.17.53.08.48-.11-.93-1.66-1.84-3.71-1.61-5.75.32-2.61,2.15-4.81,4.12-6.37,3.77-2.95,7.14-.48,7.19-2.66.03-2.36.9-4.47,2.42-6.3,3.47-4.16,8.43-6.53,13.78-7.32,3.47-.53,6.74.08,9.97,1.32,4.21,1.6,7.51,4.35,9.63,8.3.44.84,1.8.18,2.28-.27,2.57-2.39,5.82-3.62,9.26-3.01,2.66.45,4.72,2.26,5,4.96.09.98-.25,1.71-.84,2.38-2.11,2.34-3.06,5.41-2.47,8.5.07.38.23.74.55.75.11-2.32.68-4.03,1.1-5.05,2.83-6.93,10.22-9.5,12.82-10.4.73-.25,1.5-.47,2.38-.59,1.7-.24,3.41-.08,5.19.36.54.13,1.66-.02,1.74.81.21,2.22.43,4.36.41,6.73-1.63-1.69-3.51-2.82-5.74-2.22-1.49.42-2.55,1.69-2.9,2.74-.43,1.28-.3,2.42-.23,2.85.16.92.55,1.69.64,1.84.11.21.22.37.28.49-.17.23-.57.83-.48,1.59,0,.14.04.37.19.61.2.3.57.63,1.08.68l2.18.22c-.33.37-.8.94-1.3,1.72-.38.6-.52.9-.94,1.59-.28.45-.71,1.1-1.28,1.84-.66-1.64-.94-3.01-1.08-4-.16-1.18-.12-1.86-.68-2.42-.47-.48-1.08-.58-2.74-.67-1.08-.07-2.45-.12-4.05-.13-1.07,0-2.13-.02-3.2-.02-.29,0-.48.08-.62.19-1.18.99,1.25,5.52,1.59,6.12-.16.07-.65.31-.92.87-.25.5-.18.97-.15,1.16.12.75.63,1.7,1.53,1.8.46.04.92.09,1.38.14.19.81.57,2.32,1.14,3.41.09.17.18.3.33.41.73.5,2.02-.32,2.39-.15.41.19.53,1.82,2.2,1.49,1.69-.33,1.23-2.91,2.55-3.27-.1,1.73-.47,3.22-.69,4.75h0c-.09.58-.09.51-.1.62-.17,1.16-.68,4.81,1.43,7.19.22.25.59.63,1.17.99-.07,3.23-.1,6.53-.08,9.87,0,1.95.02,3.88.05,5.79-.51.06-1.98.31-3.09,1.55-.19.21-1.26,1.39-.93,1.92.46.74,3.72.24,4.94-1.69.63-1,.52-2.11.49-2.49-.25-2.87-.26-7.88-.12-14.94.56.07,1.28.11,2.12.03.77-.08,1.44-.24,1.95-.4.36,9.82.62,16.97.65,17.56,0,.1.02.4-.17.63-.19.22-.46.26-.56.27-.78.14-2.56.96-3.15,2.18-.06.13-.38.78-.1,1.19.05.07.21.25.63.31,1.35.2,3.01-1.08,3.61-2.2.25-.46.45-1.04.45-1.04.13-.38.22-.73.26-.96-.18-6.1-.35-12.18-.54-18.27.13-.08,1.26-.76,1.85-1.54.25-.32.41-.67.41-.67.1-.19.19-.42.25-.69.52-1.94.72-3.96.45-5.87h0c.12-.16.22-.32.27-.51.46-1.17.14-3-.84-3.66h-.02v-.04s0,0,0-.02h0s0-.02,0-.02c.09-.33.1-.72.06-1.07v-.07c0-.15,0-.26-.02-.41,0-.12,0-.22-.02-.31.02.06.17.09.39.07h0c.68,1.72,1.76-.93.78-1.67l-.09-3.15c.07-1.64-.04-3.29-.19-5.09l-1.09-13.82c-.22-2.87-.48-5.88-1.12-8.61-.11-.37-.43-1.44.63-1.73l20.09-2.71s.05,0,.08,0,.05,0,.09,0l.47-.04s0,.08.03.11c.02.04.04.08.08.13.17.24.49.28.96.14l.88,7.02c.47,1.1.85,1.63,1.14,1.58.45-.07.68-1.6.66-4.55,0-.26,0-.53,0-.75ZM248.06,51.76c-.13-.68.81-.91,1.13-.8.49.18,1,.47,1.11,1.5-.65-.02-2.08.12-2.23-.7ZM248.04,45.71c.16-.33.58-1.24,1.57-1.71.86-.4,1.9-.39,2.85.13,2.3,1.24,3.39,4.05,2.44,6.5-.3.74-.85,1.33-1.33,1.51-.75.27-1.68.17-2.3-.29-.75-.57-.61-1.27-1.34-1.72-.53-.31-1.14-.27-1.55-.2-.17-.3-1.22-2.29-.33-4.22ZM237.71,60.64c-.52.03-.97-.08-1.21-.37-.21-.24-.46-.97-.05-1.16.93-.44,1.91-.25,3.22-.15.17,1.17-.89,1.65-1.96,1.68ZM239.11,61.47c1.42-.39,2.22-2.05,1.34-3.23-.44-.56-3.18-.23-3.48-.98-.65-1.6-1.17-3.09-1.55-4.8,2.69.11,5.11.12,7.71.06.42-.02,1,.18,1.07.62.5,2.81,1.42,5.35,2.29,8.07.18.5.24,1.3-.32,1.52-.65.25-5.81,2.01-6.12,1.53-.48-.87-.7-1.75-.94-2.71,0,0,0-.05,0-.08Z"/>
        <path class="cls-26" d="M284.63,36.22c-.2.19-.45.29-.72.21-2.78-1.08-4.4-.85-5.28,2.46-.76,2.92-.1,4.76,2.41,6.39-.86,1.99-1.5,4.05-1.92,6.19-.4,4.7-.74,9.36-1.03,14.04l-.45.37-.2.17c-.71.08-1.52.59-2.24.55-1.12.14-2.26.28-3.37.4-1.12.12-2.24.23-3.35.33-.83.07-1.66.15-2.5.2-1.02.07-2.04.13-3.08.18-1.08.07-2.17.11-3.27.14l-1.84-.15v-.06c-.19-1.37-.3-2.78-.57-4.11-.05-.44-.01-.83.05-1.15v-.04c.09-.29.21-.51.37-.68.02.02.18.14.4.1.24-.04.35-.25.36-.27,0-.5,0-1,.01-1.5,6.76-5.66,17.79-16.84,18.29-31.81.04-1.06.02-2.16-.06-3.29.6-.08,1.98-.71,2.25.08.6,1.8.44,6.78,1.44,8.38.21-.63.4-1.39.54-2.26.15-.99.18-1.87.16-2.6.43.03.87.05,1.32.06,1.69.03,3.25-.08,4.66-.27l.12.45c-.74.36-1.52.21-2.53.27-.39,3.08.19,4.73.05,7.21Z"/>
        <path class="cls-9" d="M313.65,67.41c-.27-.5-.5-1.03-.46-1.63,0-.08,0-.17,0-.25.02-.2.03-.39.03-.58,0-.14.02-.28.02-.42.14-3.36-.09-6.61-.39-9.98l-.26-3.17v-.07c.05-1.73-.43-5.75-2.14-7.04,2.82-1.65,3.4-4.84,2-7.64-.06-.12-.13-.24-.2-.35-.08-.13-.17-.25-.27-.38-.17-.24-.35-.45-.57-.64-1.27-1.2-3.13-1.68-4.73-.59-2.41,1.65-3.08,5.09-1.87,7.59.64,1.34,1.59,1.99,2.87,2.3.26.07.54.13.83.17.11.02.23.04.34.05-.08.13-.2.29-.33.49-.06.09-.12.18-.18.27-.16.25-.3.49-.44.72-.11.2-.22.39-.32.57-.08.15-.16.29-.24.43-.03.08-.07.16-.11.24-.34.67-.55,1.17-.66,1.41,0,0-1.41,3.22-6.47,6.94-.08.06-.18.13-.28.19-.15.09-.31.17-.49.21-.18.06-.36.08-.57.06-.03,0-.06,0-.09-.02-.18-.03-.36-.12-.58-.26h0c-.61-1.87-3.84-1.67-4.68.11-.32.26-7.13-.06-7.36-1.7-.27-1.62-.75-3.06-1.47-4.45,0,0,0-.02,0-.03,0,0,0,0,0,0-.22-1.54-.73-2.95-1.38-4.51-.15-.36.9-.78,1.21-1.1,2.01-2.09,2.2-5.72.25-8.13-.89-1.07-3.27-1.42-4.38-.76-1.91,1.19-2.42,3.38-2.52,5.39-.09,2.14.85,3.79,2.86,4.59-.36,1.18-.75,2.45-1.01,3.3-.75,2.44-3.42,11.13-2.53,15.09.15.67.44,1.14.55,1.29,0,.02.02.03.03.05.1.15.23.29.37.43.4.41,1,.81,1.87,1.09,0,2.02,0,4.1.08,6.24.07,1.81.16,3.57.26,5.27l.03,10.86c0,.62.34,1.16.84,1.4.97.49,3.61,2.19,4.25,1.32.54-.67.05-1.55-.21-2.23.22.04,2.61.43,2.9-.3.08-.19-.02-.39-.11-.61-.35-.77-1.17-1.12-1.83-1.38-.43-.17-1.1-.37-1.95-.43-.27-5.55-.47-11.18-.58-16.92-.02-1.14-.04-2.27-.05-3.41.12.03.24.06.36.09.12,0,.25,0,.4,0,.34-.06.58-.22.69-.3v-.02c.43-.24.76-.56,1.01-.97,1.74,2.93,4.85.64,3.47-2.44-1.34-1.54-2.41-3.22-3.23-5.05,2.22.45,4.47.71,6.7.77.18,2.13,4.34,2.07,4.81.38.44-.28.9-.57,1.36-.88.18-.12.36-.24.55-.37.14-.08.27-.18.42-.27.03-.02.06-.04.09-.06,2.08-1.4,3.14-2.13,4.3-3.26.78-.77,1.39-1.51,1.86-2.15-1.25,5.61-1.85,10.09-1.8,12.48,0,.09,0,.18,0,.25,0,.25.03.46.05.66.07.51.21,1.54.97,2.47.61.74,1.37,1.11,1.86,1.29-.08,1.25-.15,2.52-.21,3.79-.28,5.64-.43,11.16-.46,16.56-1.72,0-3.36-.55-4.76.89-.36.36-.38.86-.22,1.2.5,1.11,2.72.45,4.06.35-.46.59-1.04,1.41-.68,2.22.64,1.49,3.8-.36,4.73-1.01.47-.32.6-.99.64-1.6l.74-16.56c.04-1.08-.07-2.05.21-3.1.44.33.85.57,1.31.52,1.63-.19,1.95-3,.85-4.97ZM297.19,57.46c.11.78-1.76,1.2-2.19.72,0-.84,2.06-1.6,2.19-.72ZM283.73,42.96c-.73.92-1.67,1.29-2.57,1.18-.94-.12-1.76-.91-2.1-1.96-.64-2.02.06-4.18,1.36-5.84,1.18-.38,2.32.07,3.14.98,1.34,1.51,1.46,3.97.17,5.65ZM282.39,88.26c-.38-.03-.74-.03-1.05,0-.15-7.15-.29-14.29-.43-21.44.31.03.71.04,1.15-.03.18-.03.34-.06.49-.1.21,6.06.36,12.17.46,18.34.02,1.11.04,2.22.05,3.31-.21-.03-.43-.06-.67-.08ZM288.08,65.21c-.9-.78-.74-1.75-.73-2.73.75.75,1.22,1.62.73,2.73ZM308.6,43.46h0c-.21,0-.4-.02-.61-.08-.11-.03-.22-.06-.32-.11-.97-.35-1.71-1.19-1.93-2.4-.33-1.83.2-4.12,1.74-5.24,1.05-.74,2.27-.33,3.11.48.23.22.43.47.58.74.03.03.04.06.06.09.07.12.13.24.19.35.76,1.54.88,3.31-.25,4.77-.59.75-1.35,1.24-2.13,1.36-.14.03-.27.04-.41.04ZM310.32,73.3c-.09,6.2-.35,12.22-.76,18.07-.68.02-1.21-.1-1.78-.33-.2-.64.05-1.18.07-1.85.2-6.64.39-13.28.58-19.92.34.05.73.1,1.14.12.28,0,.55,0,.79,0,0,1.29,0,2.6-.03,3.91Z"/>
        <path class="cls-26" d="M298.48,49.47c-.19.69-.47,5.58-.38,6.56-.04-.04-2.99-1.53-3.9.12-.14.24-.27.4-.57.61-.26.18-.56.29-.97.33-3.3.36-6.3-1.55-6.3-1.55-.37-.24-.65-.45-.8-.56-.33-1.68-.66-3.35-.99-5.03l1.55,1.66c2.43,2.59,5.51-2.59,6.45-4.39,2.58-5,4.08-10.3,5.06-15.71,1.08-.05,1.2,1.67,1.21,2.59.06,4.71,0,9.49-.53,14.17l.18,1.2Z"/>
        <path class="cls-9" d="M298.48,49.47c-.46-.07-.71-.85-.67-1.44.27-4.46.37-8.38.4-13.61,0-.45,0-1.62-.59-2.9-.2-.45-.64-1.38-1.52-2-.78-.56-1.65-.68-3.61-.64-5.81.14-8.72.2-8.95.23-.22.02-.86.08-1.11-.26-.07-.1-.09-.2-.1-.27,2.11-.65,4.38-.64,6.73-.83,4.12-.34,9.52-.85,10.33,4.25.72,4.44.3,13.33-.92,17.48Z"/>
        <path class="cls-9" d="M241.18,68.69c0,.05-.02.12-.07.18l-3.14.34c-6.74.15-13.29.21-20.03-.13h0c-7.21.06-13.03.16-16.95.24-7.06.14-9.66.25-13.92-.15-6.62-.62-12.45-2-12.45-2.26,1.37.08,3.4.2,5.87.38,3.08.22,4.59.37,5.88.46,4.44.33,7.76.17,10.69.07,12.46-.42,24.93.03,37.4.03h.03c.29,0,.57,0,.85.02-.28,0-.56,0-.85,0,.22.05.44.12.67.19,1.63-.1,3.27-.05,4.91.13-.16-.03-.32-.04-.5-.08.18.02.34.04.5.07h.08c.36.18.71.34,1.07.51Z"/>
        <path class="cls-26" d="M297.69,65.05c.01.19-.15.4-.13.61l-.17.65c-.79.11-1.56.21-2.35.3-.69.06-1.39.13-2.1.17-1.66.13-3.31.18-4.98.17-.63.05-1.39.06-2.25-.03-.84-.08-1.58-.24-2.18-.41.23-.06,1.34-.4,1.88-1.48.22-.43.28-.85.29-1.13.02-1.02.04-2.04.05-3.07.18.28.41.71.57,1.27.23.8.08,1.11.22,1.88.02.12.4,2.11,1.28,2.22.44.06.94-.37,1.16-.83.52-1.12-.55-2.62-.95-3.19-.55-.77-.86-.85-1.48-1.79-.4-.61-.66-1.16-.82-1.54-.03-.75-.05-1.51-.08-2.26.68.39,1.26.61,1.62.73,1.41.46,3.78.84,5.17.82.13,0,.43,0,.75.16.5.26.62.75.81.99.32.39,1.21.58,3.74-.34.04,1.85-.21,4.18-.06,6.09Z"/>
        <path class="cls-8" d="M240.03,68.19c-1.64-.19-3.28-.24-4.91-.13-.24-.08-.45-.14-.67-.19.29,0,.57,0,.85,0,.56,0,1.11.03,1.62.04.25.02.5.03.73.04.35.02.69.04,1.01.07.21.02.41.04.6.06.09,0,.19.02.28.03.18.03.34.05.5.08Z"/>
        <path class="cls-8" d="M241.11,68.87c-.08.09-.2.18-.38.28-.92,0-1.84.04-2.77.06l3.14-.34Z"/>
        <path class="cls-9" d="M275.21,66.6c-.31.49-.93.5-1.59.59-1.87.26-13.59,1.96-13.99.67-.86-.07,9.02-1.66,15.58-1.27Z"/>
        <path class="cls-9" d="M287.95,66.94c2.45-.45,5.25-.83,8.34-1,2.81-.15,5.39-.11,7.68.03-3.55.86-7.14.96-10.86,1.26-.55.04-5.84.41-5.17-.3Z"/>
        <path class="cls-20" d="M254.56,58.99c1.69,3.73,1.97,6.9,1.97,8.81,0,2.89.01,5.63-2,7.24-1.55,1.25-4.16,1.7-5.76.6-2.07-1.42-1.73-4.9-1.31-9.12.27-2.81.95-6.72,2.73-11.25l.9,7.48c.09.5.35.89.77.88,1.48-.02,1.8-3.04,2.7-4.65Z"/>
        <path class="cls-22" d="M257.62,61.68c.04.6-.12,1.36-.4,1.86-.53-2.69-1.1-5.51-2.51-7.97l-1.12-1.95c.35-.12,1.46-.56,2.23-1.76.76-1.18.72-2.35.7-2.72.14,1.8.28,3.6.42,5.4.23,2.38.46,4.75.68,7.13Z"/>
        <path class="cls-20" d="M252.09,53.46c2.53,5.2,2.26,3.31.04,8.43-.55-3.05-.82-5.77-1.01-8.74-.02-.37.84.04.97.31Z"/>
        <path class="cls-20" d="M284.72,56.02c.04.54.09,1.36.1,2.36.02,3.94.04,5.91-1.23,6.92-1.25,1-3.54.96-4.66-.04-.11-.1-.26-.25-.41-.48-2.06-3.24,1.01-13.57,1.01-13.57.71-2.39,1.18-3.66,1.51-4.34.35-.71.56-.75.68-.75.94-.05,1.91,3.97,2.63,7.7-1.43-2.05-2.5-3.54-2.73-3.82-.06-.07-.18-.22-.4-.31-.07-.03-.32-.14-.4-.08-.27.2.9,2.5,2.46,4.64.56.76,1.06,1.37,1.42,1.78Z"/>
        <path class="cls-12" d="M312.12,64.99c.44,1.1.32,2.27-.36,2.96-.83.84-2.15.61-2.87.48-.26-.05-1.27-.22-2.02-.87-1.44-1.25-1.27-3.66-1.15-4.89.42-4.56,2.23-17.55,4.25-17.31.39.05.89.63,1.1,1.98.52,3.26,1,6.37.97,9.79-.62-2.22-.72-4.47-1.8-6.79-.1,1.12.1,2.21.27,3.4l1.61,11.26Z"/>
        <path class="cls-9" d="M240.03,68.19c-1.64-.19-3.28-.24-4.91-.13-.24-.08-.45-.14-.67-.19.29,0,.57,0,.85,0,.56,0,1.11.03,1.62.04.25.02.5.03.73.04.35.02.69.04,1.01.07.21.02.41.04.6.06.09,0,.19.02.28.03.18.03.34.05.5.08Z"/>
        <path class="cls-9" d="M241.11,68.87c-.08.09-.2.18-.38.28-.92,0-1.84.04-2.77.06l3.14-.34Z"/>
      </g>
      <g>
        <path class="cls-9" d="M381.72,89.33c-.71-.64-2.09-.52-2.94-.7-.1-2-1.77-.61-1.25-2.93.78-3.48-4.5-5.34-6.99-6.25.62-1.07.8-2.15.27-3.1-.43-.77-1.26-1.34-2.33-1.48-1.19-.14-1.99.47-2.38,1.66l-4.64-4.62h-.04c-.86-.17-1.23.15-1.3.68-.09.42,0,.99.12,1.58.33,3.88,1.76,7.61,3.85,11.02-2.51-.03-4.29,2.04-4.03,4.48.09,1.04.74,1.8,1.71,2.15,1.42.53-.32,3.1,2.59,4.71,1.77.99,3.86.55,5.38-.74,1.99-1.72,2.35-4.35.98-6.54l5.56.38c-.74,1.47-1.24,2.74-.69,4.26.39,1.06,1.33,2.42,2.84,2.68,2.35.42,4.29-1.67,4.33-3.98.02-1.27-.08-2.43-1.04-3.25ZM367.46,76.2c.33-.48,1.63-.19,2.1.25.66.64.57,2.18.15,2.57-.98.94-2.06-1.24-2.36-2.04-.11-.3.02-.63.12-.78ZM364.43,90.54c1.02-1.16,2.49-1.66,3.85-1.18.19.92.53,1.99-.02,2.98-.91,1.6-3,2.14-4.73,1.47-.36-1.25.11-2.37.9-3.27ZM377.3,90.14c.6-.44,1.5-.27,2.11-.29.79.68,1.16,1.61.84,2.74-.21.73-.86,1.97-1.9,1.95-.64,0-1.18-.59-1.73-.45-.52-1.37-.51-3.09.68-3.95Z"/>
        <path class="cls-5" d="M360.6,71.19c.33-.7.47-1.58-.05-2.32-.35-.55-.99-.62-1.58-.56-.57.06-.9.59-1.34,1.26-1.19-1.11-2.31-2.06-3.52-2.97-.24-.19-.48-.37-.73-.55-.07-.05-.13-.11-.18-.18-.08-.08-.14-.18-.19-.28-.11-.25-.17-.54-.18-.81-.15-2.46-.65-6.94-1.99-8.73-.29-.06-.62.04-.99.32l-1.63,2.93c-.95,1.73-1.77,3.5-2.51,5.31-.08.18-.15.35-.22.53-.05.12-.09.23-.14.34-.93,2.36-1.74,4.78-2.53,7.21-.12.37-.33,1.13-.05,1.92.3.84,1.03,1.35,1.53,1.62-1.68,3.77-3.08,6.61-3.85,8.01-.25.45-.71,1.25-1.61,1.63-.58.24-1.12.22-1.46.17l-4.17-.56c-.5-.09-1.41.09-1.5.72-.25,1.98.76,5.55,2.01,5.09,1.11-.39.1-3.73-1.2-4.9,3.29-.23,6.22,2.06,8.14-.99,1.79-2.84,3.17-5.84,4.3-8.96,1.34.2,2.63.21,3.74-.07.22-.05.42-.11.63-.2,1.38-.51,2.45-1.58,2.97-3.47.47-1.73.46-3.39.63-5.3l4.57,3.29c.57.4.89.82,1.55.87.2.11.37.2.51.24.02-.02.02,0,.02,0,.16.26.32.53.48.79,0,0,0,0,.02,0,.45-.23.9-.45,1.34-.68-.28-.24-.57-.48-.85-.72ZM359.71,70.6c-.14.16-.47.23-.66.11-.35-.25-.49-.77-.15-1.12.34-.3.73-.11.87.16.15.23.18.55-.07.85Z"/>
        <path class="cls-15" d="M361.14,72.33c.27.08.39.43.41.49.28.75,4.28,4.88,10.04,9.99,1.54,1.37,3.55,3.11,5.96,5.09-.79.33-2.11.91-3.78.75-1.64-.15-2.87-.44-3.94-.82,0,0-1.78-.63-3.23-1.57-2.5-1.62-5.18-6.81-5.91-13.84.12-.07.3-.14.46-.09Z"/>
        <path class="cls-17" d="M351.32,59.56c.38,1.99.25,3.66.09,4.71-1.43-.68-1.47-2.13-1.94-3.65-1.9,3.42,2.01,4.95,2.08,6.01.12,1.94-.02,3.87-.46,5.72-.44,1.85-1.83,3.04-3.75,3.07-.91.01-2.51.35-3.32-.59-.12-.14-.19-.27-.23-.34-.53-.99.03-2.57.03-2.57.26-.74,4.61-13.51,6.39-14.57.06-.03.21-.12.37-.09.48.11.53,1.23.73,2.29Z"/>
        <path class="cls-9" d="M355.23,47.1c-.68-.91-1.6-1.44-2.59-1.45-.46-.02-.89.05-1.3.21-.79.29-1.25.81-1.47,1.06-1.22,1.36-2.53,4.86-.96,7.28.2.3.6.92,1.37,1.29,1.68.8,3.47-.29,3.61-.38.19-.12.74-.47,1.24-1.23,1.39-2.08,1.63-4.71.1-6.78ZM352.49,54.68c-.22.08-.87.28-1.57.04-1.03-.37-1.43-1.49-1.58-1.87-.79-2.2.39-5.03,2.14-5.87.24-.11.74-.32,1.38-.25.57.07,1.21.51,1.58,1.14.11.2.49.74.62,1.64.26,1.96-.73,4.55-2.57,5.18Z"/>
        <path class="cls-5" d="M352.25,94.18c.61.26,1.06,1.05.54,1.47-.71.57-3.36.55-3.97-.7-.57-1.17.86-3.21,2.09-4.99.14-.2.49-.7.89-1.42.49-.89.9-1.6.94-2.43.05-1.04-.34-1.83-.52-2.2-.83-1.69-2.03-4.36-3.59-7.8l.65-.16c1.31,2.85,2.3,4.98,2.89,6.21.18.36.58,1.19.98,2.35.23.67.35,1,.4,1.27.34,1.87-1.35,3.14-3,6.59-.33.69-.56,1.27-.69,1.6.83-.45,1.64-.13,2.39.2Z"/>
        <path class="cls-25" d="M363.52,93.82c1.74.66,3.82.12,4.74-1.47.54-.99.2-2.05.02-2.97,2.99,2.64-2.36,7.23-4.76,4.45Z"/>
        <path class="cls-26" d="M367.39,95.84c-1.71.56-3.56-.3-3.87-2.02,1.74.66,3.82.12,4.74-1.47.54-.99.2-2.05.02-2.97.87.05,1.45.44,1.74,1.12.93,2.28-.33,4.59-2.63,5.34Z"/>
        <path class="cls-3" d="M376.62,94.1c.55-.14,1.08.44,1.72.45,1.04.01,1.69-1.23,1.9-1.96.31-1.13-.05-2.07-.84-2.74,3.53,1.2.3,7.47-2.78,4.24Z"/>
        <path class="cls-26" d="M364.86,88.96c-.88.51-1.34,1.35-2.02,2.1-.37.4-1.01-.18-1.21-.56-.45-.85-.42-1.75.04-2.54.4-.69,1.17-1.49,2.18-1.48-.14,0,4.11,1.38,3.84,1.65-1.1-.18-2.12,0-2.82.83Z"/>
        <path class="cls-26" d="M380.4,95.23c-.65.55-1.68.63-2.48.24-.48-.25-.96-.76-1.3-1.37.55-.14,1.08.44,1.72.45,1.04.01,1.69-1.23,1.9-1.96.31-1.13-.05-2.07-.84-2.74.76-.04,1.56,0,1.88.54.95,1.61.55,3.66-.88,4.84Z"/>
        <path class="cls-23" d="M370.01,80.36c2.16.94,7.8,2.21,6.68,5.98l-6.68-5.98Z"/>
      </g>
      <path class="cls-11" d="M508.77,61.69c-.43,1.84-1.36,3.58-2.76,5.06-1.11,1.18-2.57,1.81-4.25,1.55-.43-.07-.86-.13-1.29-.19-.27-.04-.54-.08-.81-.12-3.01-.42-5.99-.74-9.06-.95-.27-.02-.55-.04-.82-.05-.02-.05-.05-.1-.08-.15-.06-.09-.13-.18-.2-.26-.37-.43-.89-.76-1.39-.81-.76-.09-1.46.18-1.97.62-.15.12-.27.25-.4.37-.28,0-.57-.03-.85-.04-5.25-.26-10.45-.42-15.8-.38l-4.07.03h-.89s.03-.02.04-.03c.14-.15.26-.29.38-.45,1.11-1.46,1.37-3.41.83-5.12-.28-.96-1.1-1.48-2.09-1.44-1.59.06-2.86.96-3.65,2.29-.73,1.22-1.02,2.66-.39,3.95.05.11.11.21.17.31.12.19.26.36.42.52h-.83s-15.11.13-15.11.13l-12.8.21c-2.29.04-4.47-.25-6-1.35h0c-.18-.13-.33-.26-.49-.41h0c-.17-.16-.31-.32-.45-.5-.64-.79-1.05-1.84-1.18-3.23-.18-1.99.25-3.77,1.32-5.24.23-.31.48-.61.77-.87h0c.2-.21.41-.39.64-.57.03-.03.07-.05.1-.08,2.97-2.27,5.71-2.14,9.24-1.24,0,0,0,0,.02,0,.16.04.31.08.47.13.27.07.55.15.82.23,0-1.18.1-2.22.33-3.28v-.02c.09-.35.19-.72.29-1.09,1.87-6.17,5.65-11.47,10.83-15.28,2.98-2.21,6.38-3.47,9.97-3.77h.02c1.7-.14,3.44-.06,5.2.24,3.42.24,6.58,1.34,9.59,3.17,5.29,3.21,9.5,7.78,11.82,13.66.14-.04.26-.08.4-.12.05,0,.1-.03.15-.04,0,0,0,0,.02,0,5.61-1.54,12.47-1.07,17.53,1.67.21.13.4.25.6.38.24.15.46.3.68.47.78.56,1.51,1.19,2.14,1.89.17.17.33.34.49.53.65.78,1.21,1.65,1.65,2.62,1.05,2.31,1.27,4.77.74,7.07Z"/>
      <path d="M424.75,64.17c0,.16,0,.31-.02.48.11.03.21.06.3.1-.12-.18-.22-.37-.28-.58ZM424.75,64.17c0,.16,0,.31-.02.48.11.03.21.06.3.1-.12-.18-.22-.37-.28-.58ZM510.4,56.85c-.4-2.84-3.09-6.06-6.2-8.22-.23-.17-.46-.32-.7-.47-.66-.42-7.24-4.46-15.11-2.39-1.47.38-2.65.9-3.45,1.3,0,0,0,0-.02,0-.05.03-.1.04-.14.07,0,0,0-.02,0-.03-.05-.16-.12-.39-.21-.66,0,0-.48-1.44-1.22-2.85-.85-1.64-1.93-3.14-3.22-4.54-6.23-6.77-15.37-9.38-15.87-9.52-1.04-.27-1.92-.44-2.09-.48-1.15-.22-4.16-.7-8.03-.31-3.1.3-5.67,1.07-7.57,1.79l-.26.14c-1.74.69-3.26,1.65-4.73,2.86-2.53,2.05-4.74,5.35-5.61,8.43l-.09.3-.09.3c-.96,3.3-1.05,7.09-.3,10.35v.56c-.15-.09-.31-.16-.47-.24,0,0,0,0-.02,0-3.24-1.52-6.79-1.34-9.17.22h0c-.26.18-.52.37-.74.58h0c-.15.13-.28.26-.41.4-.11.12-.22.25-.31.36-2.49,3.13-1.4,8.02-1.27,8.57.08.34.17.65.25.9.05.15.1.27.14.39.02.06.04.13.06.19.04.13.1.25.18.37.52.91,1.66,1.61,2.72,1.79,1.96.38,3.96.43,6,.38l5.34-.08,4.39-.09,4.22-.09,7.05-.09h7.33c-.33-.15-.66-.37-.93-.66-.16-.16-.3-.33-.42-.52h-.98l-7.91.05-5.48.09-6.21.08-7.13.09c-1.7,0-3.35-.09-4.96-.39-.31-.06-.6-.17-.85-.31h0s0,0,0,0c-.33-.2-.6-.43-.81-.74h0c-.12-.18-.22-.37-.28-.58h0c-.07-.18-.12-.34-.15-.53-.03-.19-.05-.37-.07-.56-.3-2.22-.41-4.67.47-6.68.12-.28.25-.55.42-.81.1-.16.21-.29.31-.43,1.89-2.27,5.86-1.64,8.25-.66l1.91.74c.22.13.82,0,.95-.18.44-.52.18-1.82.05-2.61-.11-.72-.19-1.41-.24-2.13v-.02c-.49-7.4,2.51-14.35,9.49-17.76,3.52-1.71,7.58-2.47,11.61-2.38h.02c3.99.08,7.96.98,11.41,2.6,3.87,1.83,7.18,4.3,10.05,7.44,1.95,2.13,3.3,4.52,4.17,7.25.26.78,1.05,1.3,1.83,1l2.82-1c4.42-1.53,10.38-1,14.96,1.78.24.14.47.29.7.44.77.53,1.51,1.13,2.18,1.79.17.17.33.34.49.53,1.06,1.17,1.93,2.54,2.54,4.11.72,1.87.61,3.83-.16,5.58-.21.47-.46.93-.75,1.37-1,1.43-1.82,2.78-3.04,4.13-.35.39-1.48.48-2.14.44-.88-.08-1.76-.16-2.64-.23-.25-.03-.51-.05-.75-.07-3.04-.25-6.06-.49-9.08-.7-.29-.02-.59-.04-.88-.06.07.09.14.18.2.26.03.05.06.1.08.15.17.27.28.56.37.85.25.02.5.04.75.06,2.95.22,5.9.48,8.87.76.03,0,.07,0,.1,0,.45.04.92.1,1.4.15,2.13.25,4.37.4,5.32-1.42.82-1.26,1.65-2.54,2.47-3.81.5-.85,1.23-2.35,1.41-4.35,0,0,.11-1.21-.06-2.39ZM474.63,65.98l-5.96-.09h-4.15c-.12.16-.25.3-.38.45,0,0-.03.03-.04.04-.28.3-.62.53-.97.69h6.93c4.81,0,9.57.15,14.32.41.25,0,.48.03.73.04.18-.26.37-.52.61-.75.13-.13.25-.25.4-.37-.31-.02-.62-.04-.93-.05-3.51-.19-7.02-.31-10.56-.36ZM424.75,64.17c0,.16,0,.31-.02.48.11.03.21.06.3.1-.12-.18-.22-.37-.28-.58ZM424.75,64.17c0,.16,0,.31-.02.48.11.03.21.06.3.1-.12-.18-.22-.37-.28-.58Z"/>
      <g>
        <path class="cls-13" d="M460.23,68.79c-.48-.2-1.29.52-2.59,2.08-1.66,1.99-2.7,3.64-3.32,4.61-1.08,1.69-2.53,3.88-4.31,7.14-.68,1.25-1.22,2.3-.86,3.39.35,1.09,1.41,1.66,2.02,1.98.36.19,2.27,1.21,4.26.41,1.23-.5,1.88-1.45,2.4-2.24.8-1.21.96-2.15,1.56-4.93.84-3.9.84-3.58,1.18-5.41,0,0,.44-2.37.12-5.92-.03-.37-.09-.97-.45-1.12Z"/>
        <path class="cls-24" d="M488.32,75.46c-.27-.28-.52-.49-.68-.62-.22.28-.53.71-.84,1.27-.63,1.17-.81,2.12-1.08,3.49-.79,3.99-.82,3.67-.89,4.52-.14,1.82-.2,2.85.41,3.95.19.34.83,1.45,2.19,1.95,1.54.55,2.91-.08,3.33-.3,1.45-.77,1.97-2.11,2.11-2.49.52-1.41.2-2.64-.19-4.08-.49-1.78-.94-1.9-2.88-5.6-.19-.37-.63-1.21-1.48-2.08Z"/>
        <path class="cls-24" d="M504.76,19.54c1.42-1.57,3.15-3.29,5.23-5.02,2.18-1.81,4.28-3.25,6.15-4.38-.71-1.47-1.43-3.26-2.01-5.36-.43-1.55-.7-3-.87-4.28-1.41,1.05-2.84,2.1-4.28,3.15-2.03,1.48-4.05,2.93-6.06,4.35.17.71.42,1.71.68,2.93.43,1.96.68,3.09.87,4.53.13,1.01.27,2.4.28,4.1Z"/>
        <path d="M513.69.24c-.03-.21-.46-.29-.57-.22l-9.67,7.09c-.33.24-.9.71-1.01,1.12,1.48,3.72,2.22,7.79,1.8,11.8l-2.73,3.59c-1.12,1.45-1.69,4.56.02,5.43-.8-2.93-.34-4.13,1.79-6.28l-.16,5.46c-.04,1.03-1.15,1.71-1,2.85.4-.44.81-.99,1.27-1.64,1,4.63,3.62,6.99,2.47,11.9-.36,1.56-.86,3.04-1.42,4.48h0c-.31.79-.64,1.57-.98,2.33-.14.32-.28.65-.43.96-.02.05-.04.09-.06.13-2.62,5.75-5.44,11.1-3.58,18.1.06.22.12.44.2.66.06.23.14.46.22.69,0,.04.03.08.04.12,0,.06.03.14.06.19l-.61,3.31c-1.31,1.13-7.2,7.05-8.83,5.36-1.23-1.22-1.68-3.06-2.69-3.32-.93-.25-1.23,1.92-1.88,2.94l-5.62,8.97c-.56.91-3.03.76-3.57,2.03-.22.58-.11,1.23.2,1.75.25.43.74.74,1.24.73.38-.03.94-.4,1.17-.82l1.87-3.79,3.78-5.67c-.43,3.33-1.61,6.93,1.06,9.4l.69,6.94c-1.2-.7-3.59-.78-3.62.6-.03,1.72,3.7,1.54,4.54.61l-.81-7.7c1.65.4,2.83.25,4.17-.13l.8,6.96c-1.21-.76-3.53-.89-3.61.44-.08,1.28,2.31,1.64,4.02.86.22-.1.39-.7.37-.94l-.91-7.81c3.3-2.82,1.39-7.6-.5-10.71,3.79-.55,6.49-4.78,10-6.71.45,1.8.35,3.43.08,5.27,1.52-1.04.78-4.07.72-5.55l.8-.88c.11-1.06-.57-1.92-1.55-2.28-.17-.07-.35-.12-.54-.15h0s-.02,0-.03,0c-.08-.19-.16-.37-.23-.56-.09-.24-.18-.47-.25-.71-1.84-5.7.28-11.03,2.82-16.24.24-.49.47-.99.7-1.48.02-.03.03-.06.04-.1.16-.31.3-.64.45-.96.39-.86.77-1.73,1.13-2.62h0c.45-1.14.85-2.26,1.2-3.43.89-3.06.6-5.73-.65-8.65-3.89-9.16.32-3.86-.81-12.3,1.24.62,1.53,1.87,1.48,3.06l-.15,4.14c-.04,1.13.76,2.29,2.01,2.2-.81-.7-1.26-1.55-1.21-2.61l.21-3.45c.19-3.21-2.42-4.02-2.19-4.74.04-.19.27-.47.46-.69,2.99-3.32,6.21-6.17,10.06-8.47.38-.21.84-.75,1-1.22-1.5-2.9-2.54-6.4-3.06-9.61ZM478.43,89.87c-.32.35-.91-.2-1-.49-.29-1.28,1.27-1.46,2.44-1.92-.38.95-.73,1.68-1.44,2.41ZM483.97,97.41c.84-.56,1.8-.13,2.62.37-.81.46-3.07-.05-2.62-.37ZM488.93,97.61c.7-.55,1.61-.4,2.39.28-.76.34-1.68.3-2.39-.28ZM492.6,85.89c-.02,2.37-1.69,3.94-3.95,3.91-1.97,0-3.43-1.37-3.45-3.48-.02-3.7.84-7.41,2.41-11.03,2.17,3.1,5.05,6.92,4.99,10.6ZM502.07,70.85c-.26.59-1.22.84-1.76,1.02-.11-.78-.23-2.03.44-2.47.46-.28,1.64.84,1.32,1.45ZM513.06,1.27c.48,2.89.96,5.27,2.32,8.18l-5.47-1.09,3.15-7.1ZM509.18,8.24l-5.38-.45,8.04-5.54-2.66,5.99ZM508.85,8.91l-3.91,9.4c-.06-3.46-.45-6.68-1.65-9.98l5.56.58ZM509.62,9.05l5.72,1.2c-3.8,2.25-6.85,4.84-9.82,8.18l4.1-9.38ZM504.07,26.33c-.17-1.41,0-2.73.37-4.16.2,1.39.24,2.77-.37,4.16Z"/>
        <path d="M471.35,77.05c-.46-.28-1.24.03-1.69.31-1.24.82-2.49,1.39-3.89,1.84l-5.59,1.74.67-3.83,3-.11c.85-.06,5.08.58,5.62-.83.33-.91-.72-2.12-1.54-2.16-2.21-.16-1.86,2.86-7.01,2.36.17-1.59.81-7.6-.68-7.98-.32-.1-.97.1-1.24.41-3.53,4.05-6.54,8.39-9.17,13.07-1.06,1.91-2.03,4.72.16,6.18,1.61,1.09,3.48,1.34,5.45.87.69,1.1,3.37,5.8,2.37,6.59-1.43,1.1-7.91-1.45-9.79-2.15-.37-.16-1.23-.17-1.44.19-.64,1-3.5,5.92-2.1,6.53,1.69.73,3.67-3.98,3.28-5.93l4.26,1.52c1.43.51,5.43,1.94,6.45.33,1.19-1.8-1.28-5.42-2.31-7.37,1.59-1.28,2.58-2.98,3.16-4.95.12-.42.46-.78.9-.81l6.81-.2c.27,0,.83.23,1.03.36.19.19.24.75.12,1.08-1.29,3.81-2.91,7.49-4.65,11.11-.06.11-.09.45-.06.58.29,1.01,7.46.49,6.7-1.92-.47-1.52-3.65-.55-4.92-.09,1.36-3.25,2.71-6.24,3.69-9.5.16-.5.07-1.31-.23-1.71-1.2-1.67-6.79.08-8.68-.69,2.27-.63,4.29-1.25,6.46-2.03.55-.18,1.48-.59,2-.46l2.91.69c.2.03.63-.02.8-.12.62-.36.27-2.22-.87-2.92ZM468.31,74.81c.25.23.4.61.49,1.19-1.28.25-2.02.31-3.26.23.71-.73,1.9-2.13,2.77-1.41ZM444.89,99.49c-1.1.7,1.11-4.44,1.85-4.84.19,1.53-.6,4-1.85,4.84ZM469.35,94.12c-1.3.99-2.89,1.19-4.5,1.15,1.28-.98,2.86-1.61,4.5-1.15ZM457.24,80.98c-.56-.94.88-5.22.8-6.74-.97,1.96-1.59,3.9-1.75,5.97-.09,1.01.44,1.72,1.49,1.8l1.04.09c-.6,2.08-1.73,5.51-4,6.05-1.43.34-2.86-.06-4.11-.78-2.19-1.28-.49-4.49.53-6.24,2.3-3.99,4.86-7.69,7.7-11.32.19-.23.93-.7,1.1-.46.94,2.15-.32,9.29-.97,11.62-.15.5-1.6.44-1.83.03ZM469.15,78.63c.56-.39,1.09-.74,1.7-.79.4-.03.74.79.76,1.37l-2.46-.58Z"/>
        <path class="cls-6" d="M466.12,60.97c-.5-1.85-2.37-2.73-4.22-2.04-2.3.86-3.87,3.34-3.56,5.77.05.42.17.82.34,1.19.1.19.2.36.31.53.13.17.26.31.41.46.07.07.14.13.21.19.31.28.69.51,1.07.66,1.26.49,2.63.24,3.67-.66.1-.08.19-.17.27-.25.13-.12.24-.25.34-.38.02-.02.03-.04.04-.06.14-.16.25-.31.35-.48.96-1.45,1.22-3.25.76-4.92ZM464.53,65.89c-.12.16-.25.3-.38.45,0,0-.03.03-.04.04-.28.3-.62.53-.97.69-.55.25-1.17.31-1.79.19-.2-.04-.39-.1-.59-.19-.33-.15-.66-.37-.93-.66-.16-.16-.3-.33-.42-.52-.06-.11-.12-.21-.17-.31-.63-1.29-.33-2.73.39-3.95.78-1.33,2.06-2.23,3.65-2.29.99-.04,1.8.48,2.09,1.44.54,1.71.27,3.66-.83,5.12Z"/>
        <path class="cls-4" d="M490.89,67.91c-.07-.29-.17-.58-.3-.86-.06-.14-.14-.27-.22-.4-.04-.07-.09-.13-.13-.2-.72-1.03-2.07-1.56-3.34-1.15-.67.2-1.24.56-1.71,1.04-.12.12-.23.25-.32.38-.19.24-.34.49-.48.75-.3.63-.48,1.32-.49,2.02v.05c0,1.01.31,1.99,1.02,2.76.6.66,1.47,1.05,2.39,1.06.85,0,1.72-.34,2.36-1.02.38-.42.7-.88.91-1.36.45-.98.56-2.06.3-3.08ZM487.16,72.8c-.66-.03-1.35-.38-1.81-.91-1.15-1.31-1.12-3-.24-4.37.18-.26.37-.52.61-.75.13-.13.25-.25.4-.37.51-.44,1.21-.71,1.97-.62.5.05,1.02.38,1.39.81.07.09.14.18.2.26.03.05.06.1.08.15.17.27.28.56.37.85.67,2.34-.87,5.04-2.97,4.95Z"/>
      </g>
    </g>
    <g>
      <path class="cls-7" d="M411.92,44.36c-.39-.36-.86-.61-1.39-.67l-.73-.11c-.62-.06-1.24.17-1.74.53-1.01.73-1.54,1.95-1.65,3.19-.11,1.2.23,2.31,1.06,3.21.36.39.81.71,1.31.9.25.08.57.18.97.21.38.03.72,0,.96-.04.1-.03.25-.06.41-.13.34-.13.66-.3.95-.55.95-.83,1.43-2.15,1.37-3.4-.06-1.21-.62-2.35-1.54-3.14ZM411.31,50.37c-1.37,1.01-3.11.17-3.86-1.2-.27-.51-.39-1.07-.36-1.66.03-.89.34-1.73.92-2.4.26-.27.51-.53.84-.67.23-.09.47-.09.67-.11.84-.17,1.54.2,2.1.77.89.98,1.2,2.35.83,3.61-.2.67-.58,1.26-1.14,1.65ZM428.91,78.38c-.12-.11-.23-.2-.39-.26-.65-.33-1.37-.5-2.1-.67-.47-.09-.59.28-.59.06v-1.15l-.02-.56c-.03-1.01-.18-2.43-.39-3.38-.15-.59-.42-1.12-.84-1.54-.14-.14-.23-.25-.39-.36-.2-.17.06-.5-.5-.97-.3-.24-.66-.52-1.05-.81h0s0,0,0,0c-.21-.15-.41-.29-.61-.43-.34-.25-.69-.45-.98-.59-.03-.03-.08-.03-.08-.09,0-.08.03-.17.04-.25.09-.54.13-1.07.16-1.63.05-1.12.05-2.07-.17-3.16-.03-.17-.09-.36-.18-.5-.08-.14-.19-.2-.36-.23l-.41-.03-.68-.06-.59-.02c-.2,0-.41.02-.61-.06-.23-.12-.42-.3-.59-.5l-1.12-1.07-.62-.64-2.15-2.27-1.12-1.26c-.22-.47-.42-.93-.65-1.37-.16-.32-.32-.64-.5-.95-.28-.5-.59-1.03-1.01-1.39-.13-.08-.41-.22-.79-.23-.31,0-.55.08-.69.14-.33.23-.61.56-.8.89-.51.76-.87,1.57-1.18,2.43-.03.15-.08.26-.14.39-.36-.17-.7-.27-1.09-.36-.12-.03-.26-.06-.34.06-.08.11-.05.27.09.36l.53.36s.1.07.18.14h0c.16.13.34.32.29.39-.2.28-.39.59-.59.86h-.98l-1.2.06-.9.03c-.8,0-.33.06-.83-.2-.26-.12-.53-.23-.79-.29-.45-.15-.9-.24-1.36-.26-.11-.02-.2-.02-.3-.02h0c-.13,0-.26,0-.38,0-.25,0-.48,0-.72.04-.08,0-.16.03-.24.05-.11.02-.2.17-.2.25.02.22.2.26.33.26.06,0,.12,0,.15,0,.12,0,.23.02.34.04.32.04.66.09.98.17.2.05.39.1.58.16.26.08.53.2.77.35.21.13.39.28.53.46.03.05.12.08.15.14.08.89.23,1.79.33,2.68l.06.45.05.47.03.39.06.53.11.95.03.42.14.95s0,.11-.05.08c-.12-.02-.23,0-.34,0-.27,0-.53,0-.8.09-.25.08-.47.18-.69.31-.37.2-.71.46-1.01.77-.37.37-.69.8-.93,1.26-.03.05-.06.11-.09.16-.7,1.31-.92,2.9-.97,4.35-.03.62.03,1.45.11,2.07.09.65.2,1.26.36,1.87.26,1.01.68,1.93,1.24,2.8.58.98,1.28,1.81,2.18,2.51.59.48,1.45,1.01,2.21,1.07.42.05.81.03,1.26-.03.42-.06.84-.17,1.24-.36,1.3-.65,2.26-1.99,2.74-3.32.33-.98.47-1.99.5-2.99v-.36l-.03-.59c-.03-.76-.2-1.48-.39-2.24l.45-.09c.2-.02.39-.05.62-.02.14.02.3.02.44.05.2.06.39.17.59.23.26.59.62,1.12.95,1.65.39.56.81,1.12,1.26,1.65v.62l-.03.56-.11,1.48-.11,1.71c-1.1-.56-2.16.2-2.58,1.23-.39.92-.36,1.98-.08,2.93.2.73.64,1.37,1.28,1.74.44.26.95.3,1.45.17.33-.11.65-.27.89-.53,1.28-1.26,1.37-3.32.33-4.73-.2-.3-.44-.5-.75-.67,0-.11.02-.23.05-.33.17-1.18.28-2.32.28-3.49,0-.03.03-.06.03-.09.02,0,.38.17.83.11.53-.08,1.06-.27,1.51-.53.03-.02.06,0,.08,0,.2.56.37,1.09.51,1.65l.61,2.32c.26,1.01.51,2.01.87,2.99.17.5.42.56.44.67.09.15.15.26.26.36.56.53,1.21,1.07,1.81,1.48.36.26.7.28,1.07-.02.47-.42.89-.9,1.26-1.43.05-.06.05-.08.17-.08.36.02.86,0,1.2-.17.36-.2.48-.59.31-.92-.06-.15-.17-.26-.26-.37.2-.14.33-.3.5-.47.17-.14.23-.39.09-.59-.11-.11-.25-.17-.36-.25-.5-.37-1.01-.71-1.57-.98-.2-.12-.39-.12-.56,0l-.53.33c-.56.39-1.12.76-1.65,1.15,0,.03-.03.06-.06.06-.02,0-.02-.03-.02-.09l-.71-3.22-.67-3.3-.14-.62s0-.08.05-.14c.53-.36,1.04-.78,1.51-1.23.36-.33.65-.71.89-1.12.03,0,.09.17.09.2l.03.03.42,1.17v.06l.02.03v.03l.34.92s.02.02.02.11c-1.03.89-1.53,2.4-.67,3.63.3.45.81.76,1.37.87.14.03.27,0,.41-.06.09.3.18.45.39.59.31.2.62.33.92.5l.98.51c.17.08.36.08.5-.06.23-.2.42-.42.65-.65.62-.64,1.26-1.26,1.9-1.87.14-.14.11-.39-.03-.5ZM424.19,75.08c.09-.59.17-1.15.17-1.71v-1.57c.26.31.36.84.42,1.24.11.73.17,1.45.2,2.21l.09,1.37.02.67c.03.27.06.5.12.78-.14.08-.23.2-.39.25.06-.2.06-.39.08-.61.03-.34.03-.65-.02-.98-.12-.56-.23-1.12-.68-1.51-.05-.03,0-.11,0-.14ZM404.77,65.44v-.03h.03l.59,1.02.02.04c.14.23.26.44.38.67h0c.11.25.2.48.26.74,0,.04.03.08.04.14.06.26.09.66-.1.78-.23.11-.5-.23-.64-.39-.08-.11-.15-.24-.2-.37-.13-.28-.21-.61-.26-.91-.03-.22-.06-.41-.08-.59v-.09l-.05-1ZM414.54,59.23l.73.76c.59.59,1.15,1.12,1.81,1.62-.11.06-.25.03-.36,0l-.73-.03-.5-.02c-.27-.03-.59,0-.86-.09l-1.18-2.99c-.03-.08-.03-.14-.03-.2-.03-.14-.11-.25-.11-.39.39.48.8.9,1.23,1.34ZM424.25,83.97c-.2.17-1.26.03-1.51-.03l-1.42-.23c-.15-.02-.28-.02-.39-.11.98-.33,2.48-.3,3.32.36ZM419.64,82.03l.3,1.1c-.23.19-.42.36-.64.58-.2-.5-.36-1-.51-1.51l-1.17-4.16-.51-1.62,1.24-.68.5,2.85.78,3.43ZM421.84,71.59c-.09-.2-.17-.36-.23-.59-.08-.56-.26-1.06-.47-1.62l1.09.67c.47.3.89.59,1.31.92.03.08.05.14.05.23v1.48l-.02.53-.03.5-.03,1.26c-.14,0-.26.03-.42.06-.36-1.18-.78-2.3-1.26-3.43ZM426.26,79.41c-.44,0-.89-.06-1.37-.15.62-.33,1.31-.61,2.02-.53.2.03.36.09.47.26-.14.33-.78.39-1.12.42Z"/>
      <path class="cls-14" d="M408.39,75.94c.04.93-.08,2.07-.34,2.97-.29,1.03-.78,2.03-1.6,2.74-.47.4-1.05.66-1.68.69-.93.05-1.77-.3-2.5-.84-1.06-.78-1.83-1.92-2.38-3.1-.7-1.51-1.13-3.12-1.28-4.78-.19-2.15.31-4.87,2.12-6.25.45-.34.95-.54,1.51-.61.32-.04.94-.02,1.24.08.16.05.68.3.82.42.16.62.37,1.22.84,1.67.3.29.77.53,1.19.26.14.17.25.35.38.52.41.56.84,1.68,1.04,2.36.34,1.16.56,2.34.61,3.55v.32Z"/>
      <path class="cls-10" d="M412.25,64.66c0-.11.05-.22,0-.32-.07-.16-.24-.24-.41-.23s-.3,0-.47-.01c-.88-.05-1.75-.02-2.63,0l-.83.02-.4.02-.53.02c-.1,0-.19.03-.29.02l-.04-.34-.05-.62-.04-.61c-.04-.67-.03-1.32,0-2,.07-1.5.32-2.99.86-4.39.14-.36.39-.65.55-.99.19-.41.31-.79.43-1.22.08-.28.55-.95.9-1.11.16-.07.34-.02.47.08.28.24.49.52.69.83.38.59.7,1.2.99,1.85.64,1.41,1.22,2.84,1.8,4.28.36.91.69,1.83,1,2.76.16.48.29.94.4,1.43.25,1.04.2,1.98-.51,2.83-.52.63-1.1.93-1.81,1.3-.09.05-.15.11-.26.13.04-.22.03-.42.04-.63l.02-.46.02-1.1.02-.4.02-.54.04-.6Z"/>
      <path class="cls-14" d="M407.18,69.23c-.14-.19-.27-.38-.46-.53-.02-.09.01-.16.02-.24.06-1.29-1.2-2.8-1.99-3.77.73.12,1.53.14,2.24.11l.4-.02c.33-.02.65-.04.98-.05h.35s.75-.06.75-.06l.61-.02.79-.02c.07,0,.12,0,.18,0l.62.02c-.22,1.08-.39,2.16-.5,3.25l-.05.47-.05.53-.1,1.39-.03.55v1.37c-.1.05-.19.06-.28.05-.22.04-.42.04-.64.06-.39.02-.75.06-1.15.14-.4-1.13-1.01-2.26-1.71-3.22Z"/>
      <path class="cls-14" d="M420.26,65.75l-.02,1.56c-.23.1-.43.24-.65.37l-1.53.91-.92-.34-.88-.35-.78-.29-.48-.17c.38-.54.57-1.14.61-1.79.06-1.03-.39-2.4-.71-3.39.19,0,.38-.04.56-.02l.74.09.49.05.62.05.71.05c.49.03.98.04,1.47,0l.38-.02c.13,0,.26-.03.39,0,.03.11.03.23.03.34v.69s0,.71,0,.71l-.02,1.56Z"/>
      <path class="cls-14" d="M412.08,86.24c-.38-.24-.66-.58-.84-.98-.39-.87-.36-1.99.14-2.8.41-.66,1.03-.97,1.8-.77.26.14.46.32.63.57.42.61.61,1.34.58,2.09-.03.67-.32,1.39-.84,1.82-.41.34-.99.39-1.46.09Z"/>
      <path class="cls-14" d="M418.83,74.17c-.18-.63-.29-1.14-.62-1.68-.16-.27-.54-.58-.81-.76-.49-.33-.99-.59-1.52-.9l1.08-.69,1.22-.75c.08-.07.15-.07.25-.03.66.23,1.31.46,1.94.76.08.04.12.09.15.17.17.46.55,1.65.26,2.06-.34.48-1.43,1.38-1.95,1.81Z"/>
      <path class="cls-14" d="M404.17,66.38c-.32-.18-.63-.32-.97-.41-.03-.1-.03-.19-.03-.29,0-.13-.05-1.03-.06-1.21l-.05-.6-.14-1.24-.43-3.33c-.04-.31-.08-.58-.09-.91l.47-.05.64-.05.59-.02.74-.02c.21,0,.4,0,.62-.01l-.53.79c-.22.33-.43.65-.59,1.01-.13.28-.16.59-.19.89,0,.13-.03.26-.03.39,0,.17-.02.33-.02.49v1.02s-.01,1.39-.01,1.39v1.08c.01.15.02.3.03.45l.04.61Z"/>
      <path class="cls-14" d="M418.05,74.79l-1.25.94c-.18-.28-.36-.53-.59-.76-.9-.92-2.24-1.68-3.47-2.07.23-.18.45-.31.67-.46l1.68-1.09,1.75.96c.25.14.48.28.69.47.32.44.45,1.3.57,1.84.02.08.02.12-.06.18Z"/>
      <path class="cls-14" d="M406.03,64.22c-.4.04-.73.07-1.13.11-.05,0-.11.05-.17.01l-.02-1.45c0-.24,0-.47,0-.71l.02-1.01c0-.2.02-.38.05-.57s.09-.37.18-.54c.13-.24.27-.47.42-.7.25-.37.47-.75.76-1.12-.11.73-.21,1.39-.24,2.09-.02.57-.02,1.13,0,1.7,0,.2.04.4.05.6l.02.43c.01.29.04.57.05.86,0,.1-.03.19.01.31Z"/>
      <path class="cls-14" d="M415.33,70.28c-.08.05-.14.12-.24.14l-2.37-1.25c.62-.27,1.19-.58,1.67-1.02.06-.06.11-.1.2-.07l.83.31,1.46.48c.15.05.31.08.46.16l-2.01,1.25Z"/>
      <path class="cls-14" d="M412.83,71.96l-.58.42c-.21.15-.43.15-.74.19.12-.16.16-.34.18-.53l.16-1.24.15-1.31.33.2.96.62c.3.19.59.37.91.52.05.02.09.06.14.1l-1.52,1.03Z"/>
      <path class="cls-14" d="M413.85,74.29c.14.07.24.15.37.23.52.35,1.02.71,1.49,1.12.16.14.3.29.42.47l-.98.37c-.2.08-.41.12-.62.08-.13-.02-.32-.28-.41-.39-.05-.06-.04-.15-.04-.22l-.03-.64c-.02-.42-.12-.54-.26-.88-.04-.07-.08-.14-.12-.22.07,0,.13.03.19.08Z"/>
      <path class="cls-14" d="M421.82,85.55c-.09.08-.18.17-.29.22-.09-.02-.19-.11-.26-.18l-.81-.71-.79-.7c.2-.13.37-.23.54-.36.04-.03.08-.02.12,0,.13.24.36.27.58.35.64.24,1.27.44,1.96.55-.39.27-.71.53-1.05.83Z"/>
      <path class="cls-14" d="M423.56,79.28c-.44.05-.76-.24-.95-.61-.33-.66-.38-1.41-.12-2.1.06-.16.14-.3.27-.43.26.63.44,1.25.65,1.89l.37,1.11c0,.09-.15.13-.22.14Z"/>
      <path class="cls-14" d="M424.27,83.02c-.74-.36-1.77-.41-2.56-.29.02-.06.07-.09.13-.13l1.41-1.01c.17.03.3.11.44.19.37.2.7.45.98.77-.13.17-.23.32-.31.49-.02.04-.06-.01-.09-.02Z"/>
      <path class="cls-19" d="M424.26,77.69c.02.27-.02.52-.13.77l-.82-2.73c.78-.38.92,1.51.95,1.96Z"/>
      <path class="cls-19" d="M426.81,79.93c-.26.26-.54.48-.77.78l-1.55-.84s-.08-.02-.09-.05c0-.03.02-.09.05-.12l1.28.17.41.04h.67Z"/>
      <polygon class="cls-18" points="420.09 69.33 418.98 68.92 419.71 68.46 420.09 69.33"/>
      <path class="cls-16" d="M413.3,74.87c.08.1.09.24.07.36l-.86-1.07c.31.19.56.43.79.7Z"/>
      <path class="cls-21" d="M428.22,78.71c-.03.08-.1.1-.17.16l-.08-.26c.08.04.16.04.25.1Z"/>
      <path class="cls-1" d="M413.85,74.29s-.1-.05-.17-.06c.03.07.09.11.1.2-.04-.01-.04-.06-.06-.09-.05-.09-.14-.14-.21-.24-.02-.06.38.2.34.19Z"/>
      <path class="cls-7" d="M403.8,75.73c-.11.2-.31.31-.52.32s-.41-.11-.54-.29c-.26-.38-.26-1,.13-1.31.13-.11.32-.13.46-.03.55.13.74.83.47,1.31Z"/>
    </g>
  </g>
  <g>
    <path class="cls-26" d="M174.6,36.9c-2.51,4.74-5.41,7.94-7.44,9.89-2.8,2.68-8.81,8.43-16.86,8.49-.49,0-.88-.01-1.14-.03.31-2.64.57-5.36.79-8.14.71-9.06.83-17.56.55-25.38-.75.04-1.5.08-2.26.12-1.32,10.31-5.19,25.23-17.25,34.94-.86.7-1.74,1.34-2.63,1.95-.16,2.55-.32,5.1-.48,7.66,5.77-.25,11.54-.5,17.31-.75.04-.09.1-.23.14-.35.07.04.15.07.24.11,1.07-.01,2.15-.01,3.25-.01.53.01,1.07.01,1.61.02.89.01,1.79.03,2.71.06h.01c.1,0,.24,0,.42,0,.93,0,1.65.04,3.2.11,1.45.07,1.35.11,3.56.18.3,0,.6.03.9.05.47.03.94.06,1.41.1.75.05,1.47.1,2.2.16,1.13.09,2.24.18,3.33.29.99.1,1.97.2,2.93.31.49.05.99.1,1.47.16.36.04.71.08,1.05.12.05,0,.09,0,.14.02,0-.12.01-.23.01-.35,0-.17,0-.33.02-.48h0c.01-.38.02-.73.03-1.08.08-2.37.15-4.61.22-6.69.01-.43.03-.84.04-1.26h0c.02-.37.03-.74.04-1.09h.01c.75-4.07,1.23-8.92.93-14.36-.09-1.67-.25-3.26-.46-4.76Z"/>
    <path class="cls-9" d="M173.92,66.25c.07.04.12.1.12.1.08.09.09.2.11.34.02.14.03.3.04.47-.19,0-.38,0-.59.02-1.25.04-22.71-.67-24.59-.58-.31,0-.64.02-.97.04-.05,0-.1,0-.15,0-10.24.06-17.55.13-18.63.24-.12.01-.69.07-1.38-.11-.39-.1-1.29-.4-1.28-.63.06-.9,13.91-.91,18.52-1.08.13,0,.25,0,.25,0,1.37-.05,2.48-.11,3.28-.15.18-5.68,1.24-40.19,1.17-41.23-.04-.51-.31-.73-.31-.74-.25-.21-.59-.18-.68-.17-5.43.34-10.88.2-16.3.62-.33.03-1.12.08-1.69.66-.62.63-.65,1.56-.62,2.08-1,21.89-1.32,31.2-1.21,32.53,0,.1.07.79-.06,1.69-.16,1.13-.61,2.48-.86,2.46-.48-.04-.36-4.77-.44-9.69,0,0-.23-14.42.93-27.82.06-.71.25-2.63,1.45-3.24.34-.17.74-.23,1.52-.35,1.16-.17,2.03-.17,2.12-.17,1.75,0,12.76-.55,15-.68.34-.02,1.17-.07,1.8.44.57.46.76,1.2.83,1.48.14.56.08.98.09,1.44.02.72,0,1.66,0,2.78h0c-.1,6.6-.67,19.3-1.1,28.26,0,.14,0,.26-.02.4-.02.35-.04.7-.05,1.04-.19,3.74-.33,6.67-.4,7.92,0,.09,0,.18,0,.25,9.68.5,23.9,1.26,24.1,1.38Z"/>
  </g>
  <path class="cls-9" d="M174.31,64.81c-.08.07-.26.22-.52.25-.36.05-.74-.15-.97-.49,0,0,0-.04,0-.05.66-8.97.95-14.42,1.53-25.34,0-.18.03-.64-.17-1.15-.06-.15-.23-.53-.64-.94-1.03-1.01-2.6-1.31-2.6-1.31-3.39-.64-11.81-.39-14.44-.65-1.01-.1-1.71-.33-2.2-.49-.18-.06-1.83-.61-1.78-.89.06-.31,2.17-.13,3.95-.03,4.7.25,10.38.07,15.49.77.58.08,1.69.25,2.57,1.09,1.11,1.07,1.3,2.67,1.31,2.78.03.28.03.52.02.69l-1.55,25.75Z"/>
</svg>